<svg xmlns="http://www.w3.org/2000/svg" viewBox="0 0 48 48" role="img" aria-label="设置">
  <defs>
    <linearGradient id="gearFill" x1="9" x2="39" y1="8" y2="40" gradientUnits="userSpaceOnUse">
      <stop stop-color="#fff8ff"/>
      <stop offset="1" stop-color="#ffd7e6"/>
    </linearGradient>
    <linearGradient id="gearHeart" x1="17" x2="32" y1="17" y2="33" gradientUnits="userSpaceOnUse">
      <stop stop-color="#ff89aa"/>
      <stop offset="1" stop-color="#f05283"/>
    </linearGradient>
  </defs>
  <path fill="url(#gearFill)" d="M26.7 6.5c.8 0 1.5.5 1.8 1.2l1.1 3.1c.9.3 1.8.7 2.6 1.1l3-1.4c.7-.3 1.6-.2 2.1.4l2.2 2.2c.6.6.7 1.4.4 2.1l-1.4 3c.5.8.8 1.7 1.1 2.6l3.1 1.1c.7.3 1.2 1 1.2 1.8v3.1c0 .8-.5 1.5-1.2 1.8l-3.1 1.1c-.3.9-.7 1.8-1.1 2.6l1.4 3c.3.7.2 1.6-.4 2.1l-2.2 2.2c-.6.6-1.4.7-2.1.4l-3-1.4c-.8.5-1.7.8-2.6 1.1l-1.1 3.1c-.3.7-1 1.2-1.8 1.2h-3.1c-.8 0-1.5-.5-1.8-1.2l-1.1-3.1c-.9-.3-1.8-.7-2.6-1.1l-3 1.4c-.7.3-1.6.2-2.1-.4l-2.2-2.2c-.6-.6-.7-1.4-.4-2.1l1.4-3c-.5-.8-.8-1.7-1.1-2.6l-3.1-1.1c-.7-.3-1.2-1-1.2-1.8v-3.1c0-.8.5-1.5 1.2-1.8l3.1-1.1c.3-.9.7-1.8 1.1-2.6l-1.4-3c-.3-.7-.2-1.6.4-2.1l2.2-2.2c.6-.6 1.4-.7 2.1-.4l3 1.4c.8-.5 1.7-.8 2.6-1.1l1.1-3.1c.3-.7 1-1.2 1.8-1.2h3.1Z"/>
  <path fill="url(#gearHeart)" d="M24 33.5c-.5-.4-1.4-1-2.5-1.8-3.8-2.8-6.2-5-6.2-8 0-2.6 1.8-4.6 4.3-4.6 1.7 0 3.1.9 4 2.2.9-1.3 2.3-2.2 4-2.2 2.5 0 4.3 2 4.3 4.6 0 3-2.4 5.2-6.2 8-1.1.8-2 1.4-2.5 1.8-.4.3-.8.3-1.2 0Z"/>
</svg>
