<svg xmlns="http://www.w3.org/2000/svg" viewBox="0 0 96 96" role="img" aria-label="heart medal">
  <defs>
    <linearGradient id="a" x1="14" x2="82" y1="12" y2="84" gradientUnits="userSpaceOnUse">
      <stop stop-color="#fff9fc"/>
      <stop offset=".45" stop-color="#ffd8e6"/>
      <stop offset="1" stop-color="#c79cff"/>
    </linearGradient>
    <linearGradient id="b" x1="28" x2="72" y1="28" y2="72" gradientUnits="userSpaceOnUse">
      <stop stop-color="#ff86a5"/>
      <stop offset="1" stop-color="#f05283"/>
    </linearGradient>
  </defs>
  <circle cx="48" cy="48" r="42" fill="url(#a)" opacity=".96"/>
  <circle cx="48" cy="48" r="34" fill="#fff" opacity=".34"/>
  <path fill="url(#b)" d="M48 70S25 56.6 25 40.8c0-8.1 6.1-14.2 14-14.2 4.9 0 8.1 2.4 9 4.4.9-2 4.1-4.4 9-4.4 7.9 0 14 6.1 14 14.2C71 56.6 48 70 48 70Z"/>
  <path fill="#fff" opacity=".62" d="M35 35.6c-2.9 2.1-4.1 5.6-3.5 9.5.2 1.1 1.7 1.2 2.1.2 1.2-3.5 3-5.9 6.2-7.6 1.2-.6.6-2.5-.7-2.6-1.5-.1-2.9 0-4.1.5Z"/>
</svg>
