<svg xmlns="http://www.w3.org/2000/svg" viewBox="0 0 360 640" preserveAspectRatio="none">
  <g fill="#fff" opacity=".58">
    <circle cx="22" cy="44" r="1.6"/>
    <circle cx="88" cy="78" r="1.2"/>
    <circle cx="316" cy="70" r="1.8"/>
    <circle cx="294" cy="164" r="1.2"/>
    <circle cx="38" cy="186" r="1.4"/>
    <circle cx="170" cy="210" r="1.1"/>
    <circle cx="330" cy="292" r="1.5"/>
    <circle cx="62" cy="340" r="1.1"/>
    <circle cx="248" cy="394" r="1.3"/>
    <circle cx="26" cy="520" r="1.5"/>
    <circle cx="142" cy="574" r="1.2"/>
    <circle cx="318" cy="590" r="1.5"/>
  </g>
  <g fill="none" stroke="#fff5fb" stroke-linecap="round" stroke-linejoin="round" opacity=".34">
    <path d="M56 266c-8-11-24-4-22 9 2 14 20 22 30 30 10-8 28-16 30-30 2-13-14-20-22-9-4 5-12 5-16 0Z"/>
    <path d="M276 488c-6-8-18-3-17 7 2 10 15 16 23 22 8-6 21-12 23-22 1-10-11-15-17-7-3 4-9 4-12 0Z"/>
  </g>
  <g fill="#ffe1ec" opacity=".42">
    <path d="M286 118 292 130 305 136 292 142 286 154 280 142 267 136 280 130Z"/>
    <path d="M102 452 106 461 116 466 106 471 102 480 97 471 87 466 97 461Z"/>
  </g>
</svg>
